<svg viewBox="0 0 152 192" xmlns="http://www.w3.org/2000/svg" id="favicon">
    <style>
        .favicon {
            fill: black;
        }

        @media (prefers-color-scheme: dark) {
            .favicon {
                fill: white;
            }
        }
    </style>
    <path fill-rule="evenodd" clip-rule="evenodd" d="M0 114.762C0 74.451 31.187 0 75.625 0C120.068 0 151.255 74.451 151.256 114.762C151.256 135.385 143.52 154.702 129.469 169.154C115.277 183.751 96.1541 191.79 75.625 191.79C55.097 191.79 35.978 183.751 21.787 169.153C7.73804 154.701 0 135.385 0 114.762ZM68.4856 82.3263C64.174 98.8953 51.7963 110.016 40.8394 107.164C29.8824 104.313 24.4954 88.5699 28.8071 72.0008C33.1188 55.4318 45.4965 44.3114 56.4534 47.1627C67.4103 50.014 72.7974 65.7573 68.4856 82.3263ZM121.966 73.4802C125.088 90.3139 118.594 105.634 107.462 107.699C96.3304 109.763 84.7751 97.7906 81.6531 80.9568C78.531 64.1231 85.0243 48.8029 96.1562 46.7383C107.288 44.6737 118.844 56.6465 121.966 73.4802Z" class="favicon"/>
</svg>
