<svg viewBox="0 0 16 16" xmlns="http://www.w3.org/2000/svg">
  <path fill="#000000" d="M10.6972,0.468433 C12.354,1.06178 13.7689,2.18485 14.7228,3.66372 C15.6766,5.14258 16.1163,6.89471 15.9736,8.64872 C15.8309,10.4027 15.1138,12.0607 13.9334,13.366 C12.753,14.6712 11.1752,15.5508 9.4443,15.8685 C7.71342,16.1863 5.92606,15.9244 4.35906,15.1235 C2.79206,14.3226 1.53287,13.0274 0.776508,11.4384 C0.539137,10.9397 0.750962,10.343 1.24963,10.1057 C1.74831,9.86829 2.34499,10.0801 2.58236,10.5788 C3.14963,11.7705 4.09402,12.742 5.26927,13.3426 C6.44452,13.9433 7.78504,14.1397 9.08321,13.9014 C10.3814,13.6631 11.5647,13.0034 12.45,12.0245 C13.3353,11.0456 13.8731,9.80205 13.9801,8.48654 C14.0872,7.17103 13.7574,5.85694 13.042,4.74779 C12.3266,3.63864 11.2655,2.79633 10.0229,2.35133 C8.78032,1.90632 7.42568,1.88344 6.1688,2.28624 C5.34644,2.54978 4.59596,2.98593 3.96459,3.5597 L4.69779,4.29291 C5.32776,4.92287 4.88159,6.00002 3.99069,6.00002 L1.77635684e-15,6.00002 L1.77635684e-15,2.00933 C1.77635684e-15,1.11842 1.07714,0.672258 1.70711,1.30222 L2.54916,2.14428 C3.40537,1.3473 4.43126,0.742882 5.55842,0.381656 C7.23428,-0.155411 9.04046,-0.124911 10.6972,0.468433 Z M8,4 C8.55229,4 9,4.44772 9,5 L9,7.58579 L10.7071,9.29289 C11.0976,9.68342 11.0976,10.3166 10.7071,10.7071 C10.3166,11.0976 9.68342,11.0976 9.29289,10.7071 L7,8.41421 L7,5 C7,4.44772 7.44772,4 8,4 Z"/>
</svg>
